<?xml version="1.0" standalone="no"?>
<!DOCTYPE svg PUBLIC "-//W3C//DTD SVG 20010904//EN"
 "http://www.w3.org/TR/2001/REC-SVG-20010904/DTD/svg10.dtd">
<svg version="1.0" xmlns="http://www.w3.org/2000/svg"
 width="260.000000pt" height="260.000000pt" viewBox="0 0 260.000000 260.000000"
 preserveAspectRatio="xMidYMid meet">
<metadata>
Created by potrace 1.14, written by Peter Selinger 2001-2017
</metadata>
<g transform="translate(0.000000,260.000000) scale(0.100000,-0.100000)"
fill="#000000" stroke="none">
<path d="M28 2591 c11 -7 9 -13 -8 -29 -15 -14 -20 -27 -15 -41 3 -12 11 -21
16 -21 12 0 11 7 -1 29 -8 16 -5 18 20 17 17 0 30 -5 30 -9 0 -5 -7 -7 -15 -3
-9 3 -15 0 -15 -10 0 -11 6 -14 18 -10 13 5 13 2 -4 -12 -11 -9 -19 -23 -16
-30 6 -19 -16 -14 -27 6 -6 9 -11 12 -11 5 0 -6 7 -18 15 -27 13 -12 13 -17 1
-28 -12 -12 -12 -19 0 -46 8 -19 9 -32 3 -32 -6 0 -7 -4 -4 -10 3 -5 0 -10 -7
-10 -8 0 -9 -3 -3 -8 6 -4 10 -14 10 -22 0 -8 6 -14 14 -12 11 2 12 0 3 -11
-7 -8 -8 -18 -4 -22 4 -5 -1 -5 -11 -2 -16 6 -18 1 -16 -38 2 -25 8 -45 13
-45 6 0 4 -5 -4 -11 -11 -8 -12 -12 -2 -16 14 -6 16 -49 3 -58 -11 -6 -14
-965 -3 -965 4 0 13 -12 20 -27 9 -20 9 -24 0 -15 -7 7 -16 12 -20 12 -12 0
-10 -78 3 -103 9 -16 9 -22 0 -25 -19 -6 -12 -32 12 -42 12 -5 16 -9 10 -9 -7
-1 -13 -8 -13 -17 0 -8 -4 -12 -10 -9 -14 8 -13 -18 1 -32 6 -6 18 -9 25 -6
25 9 15 -17 -11 -29 -25 -11 -37 -58 -15 -58 5 0 6 7 3 17 -4 11 -3 14 5 9 7
-4 12 -1 12 8 0 21 21 31 31 15 14 -22 10 -33 -7 -18 -10 8 -8 0 6 -24 18 -30
19 -36 6 -31 -9 3 -16 13 -16 21 0 8 -4 11 -10 8 -12 -7 15 -65 31 -65 6 0 8
-4 5 -8 -2 -4 -1 -14 4 -22 6 -10 12 -11 22 -3 11 9 12 2 10 -40 -2 -38 0 -48
7 -37 7 9 11 10 11 3 0 -6 -5 -15 -10 -18 -7 -4 -7 -12 0 -24 5 -10 6 -22 2
-27 -4 -5 2 -2 12 6 15 12 20 12 23 3 3 -9 10 -10 23 -3 13 7 19 6 24 -5 3 -8
2 -14 -2 -14 -20 3 -33 -2 -27 -11 3 -5 1 -10 -4 -10 -6 0 -11 -10 -10 -22 l0
-23 9 23 c13 30 28 28 28 -4 0 -15 6 -30 13 -35 7 -4 11 -11 7 -14 -3 -3 -12
1 -20 9 -10 9 -20 11 -29 5 -8 -5 -9 -9 -4 -9 6 0 16 -14 22 -31 10 -26 9 -37
-3 -60 -12 -25 -13 -29 0 -29 8 0 17 -6 19 -12 3 -7 3 4 0 25 -5 34 -4 37 18
36 13 0 18 -3 11 -6 -6 -2 -12 -14 -12 -24 0 -11 4 -18 9 -15 4 3 6 -5 4 -18
-3 -13 0 -27 6 -30 6 -4 11 -1 11 8 0 8 6 16 13 19 9 3 7 9 -6 24 -14 16 -14
20 -2 20 8 0 12 -4 9 -9 -3 -4 0 -8 7 -8 7 0 9 -8 5 -22 -4 -13 -8 -27 -9 -33
-2 -5 -6 -16 -10 -23 -5 -7 -2 -14 7 -18 9 -3 16 -12 16 -20 0 -7 10 -23 22
-34 19 -17 20 -22 8 -30 -8 -5 -19 -6 -25 -2 -5 3 -4 -2 4 -12 14 -17 16 -16
33 6 20 27 22 34 8 43 -5 3 -10 14 -9 23 0 12 3 11 9 -5 5 -13 14 -23 20 -23
5 0 10 -8 10 -17 0 -15 2 -16 10 -3 5 8 13 11 17 6 11 -10 11 -56 0 -56 -4 0
-5 -4 -2 -10 3 -5 2 -10 -4 -10 -6 0 -15 -10 -21 -23 -10 -20 -10 -20 3 -4 15
19 37 23 37 7 0 -5 -4 -10 -8 -10 -4 0 -8 -9 -8 -20 0 -11 4 -20 8 -20 4 0 8
7 8 15 0 9 6 12 16 8 13 -5 13 -7 2 -14 -7 -5 481 -9 1085 -9 l1097 0 0 521 0
521 -109 186 c-288 496 -293 504 -280 512 6 5 97 55 200 112 l189 103 0 172 0
172 -32 6 c-18 3 -170 26 -338 50 -496 74 -580 89 -580 104 0 9 68 40 195 91
44 17 89 35 100 40 11 5 -408 9 -955 9 -543 0 -969 -3 -962 -8z m67 -51 c3 -5
1 -10 -4 -10 -6 0 -11 5 -11 10 0 6 2 10 4 10 3 0 8 -4 11 -10z m12 -282 c-1
-10 -2 -18 -4 -18 -1 0 -7 8 -12 18 -7 14 -6 19 4 19 7 0 13 -9 12 -19z m38
12 c3 -5 1 -10 -4 -10 -6 0 -11 5 -11 10 0 6 2 10 4 10 3 0 8 -4 11 -10z m-55
-42 c0 -7 -5 -6 -15 2 -10 9 -15 9 -15 1 0 -6 -5 -11 -11 -11 -8 0 -9 4 0 13
6 8 7 17 3 22 -4 4 3 2 16 -4 12 -6 22 -17 22 -23z m-60 8 c0 -3 -4 -8 -10
-11 -5 -3 -10 -1 -10 4 0 6 5 11 10 11 6 0 10 -2 10 -4z m20 -66 c0 -5 -2 -10
-4 -10 -3 0 -8 5 -11 10 -3 6 -1 10 4 10 6 0 11 -4 11 -10z m988 -546 c49 -34
52 -55 52 -324 0 -205 -3 -256 -15 -280 -29 -57 -48 -60 -336 -60 l-261 0 -34
34 -34 34 0 272 0 272 34 34 34 34 269 0 c227 0 272 -2 291 -16z m413 -55 c86
-37 122 -140 72 -207 l-22 -30 21 -18 c33 -30 48 -70 48 -124 0 -62 -18 -100
-67 -137 -36 -28 -39 -28 -195 -31 l-158 -3 0 285 0 286 126 0 c105 0 133 -3
175 -21z m451 11 c44 -13 93 -52 113 -91 18 -33 20 -106 4 -146 -13 -36 -57
-82 -92 -97 l-27 -12 28 -40 c15 -21 49 -69 75 -106 l48 -68 -68 1 -68 0 -73
105 c-59 84 -77 104 -97 104 l-25 0 0 -105 0 -105 -60 0 -60 0 0 278 c0 153 3
282 7 285 10 11 254 8 295 -3z m288 -275 l0 -285 -55 0 -55 0 0 285 0 285 55
0 55 0 0 -285z m-2163 -97 c-3 -8 -6 -5 -6 6 -1 11 2 17 5 13 3 -3 4 -12 1
-19z m47 -19 c-8 -13 -21 -11 -27 5 -4 10 0 12 14 9 10 -3 16 -9 13 -14z m-34
-49 c0 -5 -5 -10 -11 -10 -5 0 -7 5 -4 10 3 6 8 10 11 10 2 0 4 -4 4 -10z m20
-110 c0 -5 -4 -10 -10 -10 -5 0 -10 5 -10 10 0 6 5 10 10 10 6 0 10 -4 10 -10z
m30 -112 c0 -4 -5 -8 -11 -8 -5 0 -7 -4 -4 -10 3 -5 4 -10 1 -10 -3 0 -10 9
-16 19 -8 17 -7 20 10 18 11 -1 20 -5 20 -9z m12 -40 c-7 -7 -12 -8 -12 -2 0
14 12 26 19 19 2 -3 -1 -11 -7 -17z m-27 -25 c-3 -16 -2 -22 1 -15 8 17 24 5
24 -19 0 -26 -26 -24 -34 4 -9 33 -7 57 4 57 6 0 8 -12 5 -27z m15 -89 c0 -8
-5 -12 -10 -9 -6 4 -8 11 -5 16 9 14 15 11 15 -7z m16 -43 c-4 -5 0 -12 6 -14
8 -3 6 -6 -4 -6 -10 -1 -18 6 -18 14 0 8 5 15 11 15 5 0 8 -4 5 -9z m44 -58
c0 -19 -13 -53 -19 -53 -4 0 -6 14 -3 30 2 17 8 30 13 30 5 0 9 -3 9 -7z m34
-38 c-4 -8 -11 -12 -16 -9 -6 4 -5 10 3 15 19 12 19 11 13 -6z m-8 -50 c3 -17
2 -17 -20 -9 -12 5 -13 9 -3 19 13 14 20 12 23 -10z m84 -161 c0 -8 -5 -12
-10 -9 -6 4 -8 11 -5 16 9 14 15 11 15 -7z m24 -59 c3 -8 1 -15 -4 -15 -6 0
-10 7 -10 15 0 8 2 15 4 15 2 0 6 -7 10 -15z m66 -100 c0 -8 -2 -15 -4 -15 -2
0 -6 7 -10 15 -3 8 -1 15 4 15 6 0 10 -7 10 -15z m-43 -21 c-9 -9 -28 6 -21
18 4 6 10 6 17 -1 6 -6 8 -13 4 -17z m173 -4 c0 -5 -4 -10 -10 -10 -5 0 -10 5
-10 10 0 6 5 10 10 10 6 0 10 -4 10 -10z m-84 -27 c6 -23 8 -24 19 -9 10 14
12 10 10 -24 -1 -22 2 -40 7 -40 5 0 6 -5 3 -10 -8 -13 -27 -2 -22 13 2 7 -7
31 -20 55 -14 23 -20 42 -14 42 6 0 14 -12 17 -27z m94 -32 c0 -9 -29 -11 -50
-4 -11 4 -8 8 10 13 26 7 40 4 40 -9z m-5 -50 c9 -16 -9 -20 -23 -5 -10 12
-10 14 2 14 8 0 17 -4 21 -9z m-38 -53 c-3 -8 -6 -5 -6 6 -1 11 2 17 5 13 3
-3 4 -12 1 -19z m-20 -25 c-3 -10 -5 -4 -5 12 0 17 2 24 5 18 2 -7 2 -21 0
-30z m24 -16 c-10 -9 -11 -8 -5 6 3 10 9 15 12 12 3 -3 0 -11 -7 -18z"/>
<path d="M506 1558 c-13 -19 -16 -61 -16 -260 0 -225 1 -239 20 -258 52 -52
160 3 160 81 0 13 -29 51 -77 100 l-77 80 79 79 c72 72 79 83 78 117 -2 53
-38 83 -103 83 -39 0 -52 -4 -64 -22z"/>
<path d="M740 1561 c16 -31 12 -123 -6 -151 -10 -14 -35 -44 -57 -67 l-41 -42
52 -54 c65 -70 74 -107 46 -204 -6 -23 -6 -23 108 -23 63 0 118 3 122 7 4 4
-53 67 -126 140 l-132 132 77 80 c68 69 77 83 77 115 0 52 -36 86 -90 86 -37
0 -40 -2 -30 -19z"/>
<path d="M930 1554 c26 -68 8 -130 -60 -199 l-49 -50 89 -95 89 -95 1 222 c0
210 -1 223 -19 233 -11 5 -29 10 -40 10 -18 0 -19 -3 -11 -26z"/>
<path d="M1260 1425 l0 -55 79 0 c86 0 91 4 91 60 0 39 -24 50 -104 50 l-66 0
0 -55z"/>
<path d="M1260 1189 l0 -71 81 4 c70 3 83 6 100 27 25 30 24 66 -1 91 -17 17
-33 20 -100 20 l-80 0 0 -71z"/>
<path d="M1720 1405 l0 -75 65 0 c75 0 108 13 124 47 16 34 14 47 -10 77 -19
24 -26 26 -100 26 l-79 0 0 -75z"/>
<path d="M10 720 c-10 -6 -11 -12 -2 -22 6 -8 8 -19 4 -24 -4 -5 -5 -8 -3 -7
2 2 10 -2 18 -9 11 -9 12 -7 4 15 -6 15 -6 27 -1 29 5 2 6 8 2 15 -5 7 -13 9
-22 3z"/>
<path d="M65 650 c2 -14 5 -28 5 -32 0 -12 30 -9 30 2 0 6 -5 10 -10 10 -6 0
-15 10 -21 23 -9 21 -9 21 -4 -3z"/>
<path d="M56 554 c-9 -24 -7 -28 9 -14 17 14 20 30 6 30 -5 0 -12 -7 -15 -16z"/>
<path d="M96 547 c3 -9 0 -25 -7 -34 -12 -14 -12 -16 1 -11 19 6 25 37 10 52
-8 8 -10 7 -4 -7z"/>
<path d="M138 514 c-5 -4 -8 -19 -8 -33 0 -18 3 -22 11 -14 6 6 9 21 7 33 -1
12 -6 18 -10 14z"/>
<path d="M101 444 c0 -11 3 -14 6 -6 3 7 2 16 -1 19 -3 4 -6 -2 -5 -13z"/>
<path d="M122 380 c0 -14 2 -19 5 -12 2 6 2 18 0 25 -3 6 -5 1 -5 -13z"/>
<path d="M170 390 c-7 -14 -5 -59 3 -51 5 5 7 19 4 32 -2 13 -5 22 -7 19z"/>
<path d="M181 243 c0 -6 -4 -20 -7 -30 -5 -14 -4 -15 5 -7 7 7 11 20 8 30 -3
11 -5 14 -6 7z"/>
<path d="M210 200 c8 -5 22 -9 30 -9 10 0 8 3 -5 9 -27 12 -43 12 -25 0z"/>
<path d="M250 158 c0 -7 5 -20 10 -28 8 -12 10 -11 10 7 0 12 -4 25 -10 28 -5
3 -10 0 -10 -7z"/>
<path d="M376 123 c-6 -14 -5 -15 5 -6 7 7 10 15 7 18 -3 3 -9 -2 -12 -12z"/>
<path d="M335 60 c3 -5 8 -10 11 -10 2 0 4 5 4 10 0 6 -5 10 -11 10 -5 0 -7
-4 -4 -10z"/>
<path d="M315 25 c0 -13 3 -21 8 -18 4 2 7 10 7 18 0 8 -3 16 -7 18 -5 3 -8
-5 -8 -18z"/>
</g>
</svg>
